<svg width="293" height="242" viewBox="0 0 293 242" fill="none" xmlns="http://www.w3.org/2000/svg">
<path d="M293 70H47.5C39.4919 70 33 76.4919 33 84.5C33 92.5081 39.4919 99 47.5 99H293V70Z" fill="#FF6161"/>
<path d="M293 0H96.5C88.4919 0 82 6.49187 82 14.5C82 22.5081 88.4919 29 96.5 29H293V0Z" fill="#FF6161"/>
<path d="M293 140H14.5C6.49187 140 0 146.492 0 154.5C0 162.508 6.49187 169 14.5 169H293V140Z" fill="#FF6161"/>
<path d="M293 213H58.5C50.4919 213 44 219.492 44 227.5C44 235.508 50.4919 242 58.5 242H293V213Z" fill="#FF6161"/>
</svg>
